<svg xmlns="http://www.w3.org/2000/svg" xmlns:xlink="http://www.w3.org/1999/xlink" width="76" height="76" viewBox="0 0 76 76"><defs><style>.a{fill:#fff;}.b{filter:url(#a);}</style><filter id="a" x="0" y="0" width="76" height="76" filterUnits="userSpaceOnUse"><feOffset dy="5" input="SourceAlpha"/><feGaussianBlur stdDeviation="5" result="b"/><feFlood flood-opacity="0.102"/><feComposite operator="in" in2="b"/><feComposite in="SourceGraphic"/></filter></defs><g class="b" transform="matrix(1, 0, 0, 1, 0, 0)"><path class="a" d="M23,46A23,23,0,0,1,6.737,6.737,23,23,0,1,1,39.263,39.263,22.849,22.849,0,0,1,23,46Zm.5-34a9.128,9.128,0,0,0-6.351,2.519,8.331,8.331,0,0,0-1.239,10.685L23.5,38,30.974,25.38a8.331,8.331,0,0,0-1.122-10.857A9.128,9.128,0,0,0,23.5,12Zm0,11.849A3.249,3.249,0,1,1,26.749,20.6,3.253,3.253,0,0,1,23.5,23.854Z" transform="translate(15 10)"/></g></svg>